<svg xmlns="http://www.w3.org/2000/svg" width="19" height="16" viewBox="0 0 19 16" fill="none">
<path d="M4.14978 9.70882L5.46205 7.32061C5.60471 7.0539 5.82171 6.82872 6.08985 6.66916C6.35798 6.50959 6.66715 6.42165 6.98428 6.41473H16.3976M16.3976 6.41473C16.6649 6.41429 16.9288 6.4715 17.1689 6.58197C17.4091 6.69245 17.6191 6.85325 17.783 7.05203C17.9469 7.25081 18.0602 7.48229 18.1142 7.7287C18.1683 7.97512 18.1617 8.22991 18.0948 8.47354L16.7476 13.4147C16.6501 13.7701 16.4293 14.0846 16.1202 14.3084C15.8112 14.5322 15.4315 14.6524 15.0416 14.65H2.40008C1.93604 14.65 1.49099 14.4764 1.16286 14.1675C0.834733 13.8587 0.650391 13.4397 0.650391 13.0029V2.29712C0.650391 1.86029 0.834733 1.44136 1.16286 1.13248C1.49099 0.8236 1.93604 0.650073 2.40008 0.650073H5.81198C6.10461 0.647372 6.39328 0.713804 6.65157 0.843288C6.90987 0.972772 7.12954 1.16117 7.29048 1.39124L7.9991 2.37947C8.15842 2.6072 8.37531 2.79413 8.6303 2.92349C8.8853 3.05285 9.17043 3.1206 9.46009 3.12064H14.6479C15.112 3.12064 15.557 3.29417 15.8852 3.60305C16.2133 3.91193 16.3976 4.33086 16.3976 4.76769V6.41473Z" stroke="#6B6B6B" stroke-width="1.3" stroke-linecap="round" stroke-linejoin="round"/>
</svg>