<svg xmlns="http://www.w3.org/2000/svg" width="16" height="16" viewBox="0 0 16 16" fill="none">
<path d="M6.24805 11.8505H9.04805" stroke="white" stroke-width="1.3" stroke-linecap="round" stroke-linejoin="round"/>
<path d="M0.896364 8.49944C0.64925 6.89133 0.525693 6.08733 0.82971 5.37456C1.13372 4.66178 1.80821 4.17409 3.15719 3.19874L4.16508 2.46999C5.84319 1.25666 6.68222 0.649994 7.65039 0.649994C8.61856 0.649994 9.45758 1.25666 11.1357 2.46999L12.1436 3.19874C13.4926 4.17409 14.167 4.66178 14.471 5.37456C14.7751 6.08733 14.6515 6.89133 14.4044 8.49944L14.1937 9.87067C13.8434 12.1502 13.6682 13.29 12.8507 13.97C12.0332 14.65 10.838 14.65 8.44755 14.65H6.85323C4.46282 14.65 3.26763 14.65 2.45009 13.97C1.63255 13.29 1.4574 12.1502 1.10709 9.87067L0.896364 8.49944Z" stroke="white" stroke-width="1.3" stroke-linejoin="round"/>
</svg>