<svg xmlns="http://www.w3.org/2000/svg" width="18" height="18" viewBox="0 0 18 18" fill="none">
<circle cx="8.98096" cy="8.98096" r="8.23096" stroke="#FF6501" stroke-width="1.5"/>
<path d="M7.91342 5.78321C7.90422 5.73576 7.89597 5.68842 7.88762 5.64108C7.79218 5.62915 7.69674 5.61722 7.6013 5.60529C7.58156 5.64912 7.5619 5.69297 7.54131 5.73669C7.48055 5.87379 7.43468 6.01479 7.40157 6.16076C7.34436 6.42215 7.3208 6.69679 7.3861 7.00286C7.44219 7.28793 7.6628 7.72959 8.1434 7.85341C8.21072 7.87164 8.27574 7.88562 8.33715 7.89724C9.31512 8.04904 10.2882 8.17842 10.1664 8.74126C10.1294 9.15596 10.0517 9.5018 9.82582 9.64836C9.5796 9.82026 9.11297 9.85421 8.68029 9.86497C8.54861 9.86789 8.41923 9.86872 8.28487 9.86801C8.22824 9.86771 8.17161 9.86725 8.11499 9.86685C8.10248 9.97942 8.08997 10.092 8.07746 10.2045C8.1328 10.2166 8.18814 10.2286 8.24346 10.2407C8.37776 10.2698 8.50856 10.2965 8.64495 10.3203C9.10156 10.3861 9.57948 10.4949 10.1512 10.2561C10.7611 9.96946 10.9242 9.31324 11.0143 8.86239C11.077 8.55564 11.031 8.14048 10.8009 7.83585C10.5768 7.53188 10.2818 7.37375 10.017 7.26317C9.48346 7.04905 8.96155 6.99613 8.52274 6.91462C8.47307 6.90525 8.42468 6.89582 8.38493 6.8873C8.38582 6.89901 8.31133 6.88362 8.22481 6.72441C8.14192 6.57662 8.07067 6.37116 8.00873 6.15669C7.97409 6.03611 7.94157 5.91037 7.91342 5.78321Z" fill="#FF6501"/>
<path d="M7.54938 13.454C5.11167 13.454 3.55319 11.6051 3.07603 10.5911C2.71816 10.5911 3.07603 12.5594 4.68643 13.454C6.29684 14.3487 8.98085 14.7066 11.8438 13.454C14.1341 12.452 14.826 10.4122 14.8857 9.5175H15.6014L14.5278 7.90707L13.0963 9.5175H13.991C14.1699 9.39821 14.3489 9.5175 13.6331 10.949C12.7385 12.7383 10.5913 13.454 7.54938 13.454Z" fill="#FF6501"/>
</svg>