<svg xmlns="http://www.w3.org/2000/svg" width="25" height="24" viewBox="0 0 25 24" fill="none">
<path d="M0 5.14286C0 2.30254 2.29641 0 5.12918 0H19.8708C22.7036 0 25 2.30254 25 5.14286V18.8571C25 21.6975 22.7036 24 19.8708 24H5.12918C2.29641 24 0 21.6975 0 18.8571V5.14286Z" fill="#E3494E"/>
<path fill-rule="evenodd" clip-rule="evenodd" d="M12.5583 12.884V5.05192L9.1689 5.05166V12.884C9.1689 13.8186 9.93128 14.5831 10.8637 14.5831C11.7959 14.5831 12.5583 13.8184 12.5583 12.884Z" fill="#E6D3AC"/>
<path fill-rule="evenodd" clip-rule="evenodd" d="M13.61 9.24346V12.8661C13.61 14.3804 12.3743 15.6197 10.8636 15.6197C9.35286 15.6197 8.11711 14.3806 8.11711 12.8661V11.8639H4.96137V13.0405C4.96137 16.2952 7.61694 18.9584 10.8636 18.9584C14.1105 18.9584 16.766 16.2952 16.766 13.0405V9.24372L13.61 9.24346Z" fill="#E6D3AC"/>
<path fill-rule="evenodd" clip-rule="evenodd" d="M13.6099 5.05221V8.37355H19.9688V5.05221H13.6099Z" fill="#E6D3AC"/>
<path fill-rule="evenodd" clip-rule="evenodd" d="M19.9688 15.6378H17.2277C16.7004 17.0113 15.7414 18.1748 14.5203 18.9592H19.9685L19.9688 15.6378Z" fill="#E6D3AC"/>
</svg>