<svg xmlns="http://www.w3.org/2000/svg" width="22" height="22" viewBox="0 0 22 22" fill="none">
<path d="M2.61093 7.36521C2.46498 6.70774 2.48739 6.02406 2.67609 5.37755C2.8648 4.73105 3.21368 4.14266 3.6904 3.66694C4.16712 3.19121 4.75624 2.84356 5.40314 2.65621C6.05004 2.46886 6.73377 2.44788 7.39093 2.59521C7.75264 2.02952 8.25094 1.56397 8.83989 1.2415C9.42883 0.919027 10.0895 0.75 10.7609 0.75C11.4324 0.75 12.093 0.919027 12.682 1.2415C13.2709 1.56397 13.7692 2.02952 14.1309 2.59521C14.7891 2.44724 15.474 2.46812 16.1219 2.65593C16.7699 2.84373 17.3598 3.19236 17.8368 3.66937C18.3138 4.14638 18.6624 4.73629 18.8502 5.38422C19.038 6.03214 19.0589 6.71705 18.9109 7.37521C19.4766 7.73692 19.9422 8.23522 20.2646 8.82417C20.5871 9.41311 20.7561 10.0738 20.7561 10.7452C20.7561 11.4167 20.5871 12.0773 20.2646 12.6663C19.9422 13.2552 19.4766 13.7535 18.9109 14.1152C19.0583 14.7724 19.0373 15.4561 18.8499 16.103C18.6626 16.7499 18.3149 17.339 17.8392 17.8157C17.3635 18.2925 16.7751 18.6414 16.1286 18.8301C15.4821 19.0188 14.7984 19.0412 14.1409 18.8952C13.7797 19.4631 13.281 19.9306 12.6911 20.2545C12.1011 20.5784 11.439 20.7483 10.7659 20.7483C10.0929 20.7483 9.43076 20.5784 8.84081 20.2545C8.25086 19.9306 7.75217 19.4631 7.39093 18.8952C6.73377 19.0425 6.05004 19.0216 5.40314 18.8342C4.75624 18.6469 4.16712 18.2992 3.6904 17.8235C3.21368 17.3478 2.8648 16.7594 2.67609 16.1129C2.48739 15.4664 2.46498 14.7827 2.61093 14.1252C2.04089 13.7645 1.57135 13.2654 1.24598 12.6744C0.920618 12.0835 0.75 11.4198 0.75 10.7452C0.75 10.0706 0.920618 9.40696 1.24598 8.816C1.57135 8.22504 2.04089 7.72597 2.61093 7.36521Z" stroke="#717182" stroke-width="1.5" stroke-linecap="round" stroke-linejoin="round"/>
<path d="M7.79348 15.75V12.1926H6.75V11.2542H7.79348V10.1478H6.75V9.20938H7.79348V5.75H9.53261L10.837 9.20938H12.4312V5.75H13.7065V9.20938H14.75V10.1478H13.7065V11.2542H14.75V12.1926H13.7065V15.75H11.9674L10.6486 12.1926H9.06884V15.75H7.79348ZM9.06884 11.2542H10.3152L9.90942 10.1478H9.03986L9.06884 11.2542ZM12.4457 13.7192H12.5036L12.4601 12.1926H11.9094L12.4457 13.7192ZM9.02536 9.20938H9.57609L9.02536 7.58473H8.96739L9.02536 9.20938ZM11.5761 11.2542H12.4601L12.4312 10.1478H11.1703L11.5761 11.2542Z" fill="#717182"/>
</svg>