<svg xmlns="http://www.w3.org/2000/svg" width="20" height="22" viewBox="0 0 20 22" fill="none">
<path d="M8.26562 19.9912C8.44117 20.2953 8.69364 20.5477 8.99767 20.7232C9.3017 20.8988 9.64657 20.9912 9.99763 20.9912C10.3487 20.9912 10.6936 20.8988 10.9976 20.7232C11.3016 20.5477 11.5541 20.2953 11.7296 19.9912" stroke="black" stroke-width="2" stroke-linecap="round" stroke-linejoin="round"/>
<path d="M9.67927 1.00003C8.14563 1.08194 6.7018 1.74884 5.64512 2.86337C4.58844 3.9779 3.99939 5.45521 3.99927 6.99103C3.99927 11.49 2.58827 12.947 1.26127 14.317C1.13063 14.4602 1.04442 14.6383 1.01312 14.8295C0.981826 15.0208 1.00679 15.2171 1.08498 15.3944C1.16316 15.5718 1.2912 15.7226 1.45352 15.8285C1.61585 15.9344 1.80545 15.9909 1.99927 15.991H17.9993C18.1931 15.9911 18.3827 15.9349 18.5451 15.8291C18.7076 15.7234 18.8358 15.5728 18.9142 15.3955C18.9926 15.2183 19.0178 15.0221 18.9867 14.8308C18.9557 14.6395 18.8697 14.4614 18.7393 14.318C17.9153 13.468 17.0613 12.587 16.5293 10.97" stroke="black" stroke-width="2" stroke-linecap="round" stroke-linejoin="round"/>
<path d="M16 6.99124C17.6569 6.99124 19 5.6481 19 3.99124C19 2.33439 17.6569 0.991241 16 0.991241C14.3431 0.991241 13 2.33439 13 3.99124C13 5.6481 14.3431 6.99124 16 6.99124Z" fill="#E3494E"/>
</svg>