<svg xmlns="http://www.w3.org/2000/svg" width="22" height="22" viewBox="0 0 22 22" fill="none">
<path d="M9.75 13.75H11.75C12.2804 13.75 12.7891 13.5393 13.1642 13.1642C13.5393 12.7891 13.75 12.2804 13.75 11.75C13.75 11.2196 13.5393 10.7109 13.1642 10.3358C12.7891 9.96071 12.2804 9.75 11.75 9.75H8.75C8.15 9.75 7.65 9.95 7.35 10.35L1.75 15.75" stroke="#717182" stroke-width="1.5" stroke-linecap="round" stroke-linejoin="round"/>
<path d="M5.75 19.7503L7.35 18.3503C7.65 17.9503 8.15 17.7503 8.75 17.7503H12.75C13.85 17.7503 14.85 17.3503 15.55 16.5503L20.15 12.1503C20.5359 11.7856 20.7611 11.2826 20.7761 10.7518C20.7911 10.2211 20.5947 9.70616 20.23 9.32027C19.8653 8.93438 19.3623 8.70916 18.8316 8.69416C18.3008 8.67916 17.7859 8.8756 17.4 9.24027L13.2 13.1403" stroke="#717182" stroke-width="1.5" stroke-linecap="round" stroke-linejoin="round"/>
<path d="M0.75 14.75L6.75 20.75" stroke="#717182" stroke-width="1.5" stroke-linecap="round" stroke-linejoin="round"/>
<path d="M14.7516 10.6496C16.3532 10.6496 17.6516 9.35124 17.6516 7.74961C17.6516 6.14798 16.3532 4.84961 14.7516 4.84961C13.1499 4.84961 11.8516 6.14798 11.8516 7.74961C11.8516 9.35124 13.1499 10.6496 14.7516 10.6496Z" stroke="#717182" stroke-width="1.5" stroke-linecap="round" stroke-linejoin="round"/>
<path d="M4.75 6.75C6.40685 6.75 7.75 5.40685 7.75 3.75C7.75 2.09315 6.40685 0.75 4.75 0.75C3.09315 0.75 1.75 2.09315 1.75 3.75C1.75 5.40685 3.09315 6.75 4.75 6.75Z" stroke="#717182" stroke-width="1.5" stroke-linecap="round" stroke-linejoin="round"/>
</svg>