<svg xmlns="http://www.w3.org/2000/svg" width="201" height="201" viewBox="0 0 201 201" fill="none">
<path d="M200.461 100.48C200.461 73.964 189.927 48.5336 171.177 29.7836C152.427 11.0336 126.997 0.5 100.48 0.5C73.964 0.5 48.5336 11.0336 29.7836 29.7836C11.0336 48.5336 0.5 73.964 0.5 100.48H100.48H200.461Z" fill="#00D273" stroke="white" stroke-width="0.999804"/>
<path d="M0.5 100.48C0.5 126.997 11.0336 152.427 29.7836 171.177C48.5336 189.927 73.964 200.461 100.48 200.461V100.48H0.5Z" fill="#3B82F6" stroke="white" stroke-width="0.999804"/>
<path d="M100.48 200.461C126.997 200.461 152.427 189.927 171.177 171.177L100.48 100.48V200.461Z" fill="#F59E0B" stroke="white" stroke-width="0.999804"/>
<path d="M171.177 171.177C189.927 152.427 200.461 126.997 200.461 100.48H100.48L171.177 171.177Z" fill="#E3494E" stroke="white" stroke-width="0.999804"/>
</svg>