<svg xmlns="http://www.w3.org/2000/svg" width="19" height="16" viewBox="0 0 19 16" fill="none">
<path d="M8.42817 14.4609C8.72376 14.5838 9.05907 14.6485 9.40039 14.6485C9.74171 14.6485 10.077 14.5838 10.3726 14.4609L17.1782 11.6606C17.4735 11.5379 17.7187 11.3613 17.8894 11.1488C18.06 10.9362 18.15 10.695 18.1504 10.4495V4.84897C18.15 4.60344 18.06 4.36229 17.8894 4.14971C17.7187 3.93714 17.4735 3.76062 17.1782 3.63785L10.3726 0.837577C10.077 0.714689 9.74171 0.649994 9.40039 0.649994C9.05907 0.649994 8.72376 0.714689 8.42817 0.837577L1.62261 3.63785C1.32731 3.76062 1.08204 3.93714 0.911395 4.14971C0.740752 4.36229 0.65074 4.60344 0.650391 4.84897V10.4495C0.65074 10.695 0.740752 10.9362 0.911395 11.1488C1.08204 11.3613 1.32731 11.5379 1.62261 11.6606L8.42817 14.4609Z" stroke="#6B6B6B" stroke-width="1.3" stroke-linecap="round" stroke-linejoin="round"/>
<path d="M9.40039 14.6497V7.64902" stroke="#6B6B6B" stroke-width="1.3" stroke-linecap="round" stroke-linejoin="round"/>
<path d="M0.931641 4.14902L9.3997 7.64936L17.8677 4.14902" stroke="#6B6B6B" stroke-width="1.3" stroke-linecap="round" stroke-linejoin="round"/>
<path d="M5.02539 2.23788L13.7754 5.84324" stroke="#6B6B6B" stroke-width="1.3" stroke-linecap="round" stroke-linejoin="round"/>
</svg>