<svg xmlns="http://www.w3.org/2000/svg" width="16" height="16" viewBox="0 0 16 16" fill="none">
<path d="M7.65039 9.55909C8.70475 9.55909 9.55948 8.70436 9.55948 7.65C9.55948 6.59564 8.70475 5.74091 7.65039 5.74091C6.59603 5.74091 5.7413 6.59564 5.7413 7.65C5.7413 8.70436 6.59603 9.55909 7.65039 9.55909Z" stroke="#6B6B6B" stroke-width="1.3" stroke-linecap="round" stroke-linejoin="round"/>
<path d="M12.3595 9.55909C12.2748 9.75103 12.2495 9.96394 12.2869 10.1704C12.3244 10.3768 12.4228 10.5673 12.5695 10.7173L12.6077 10.7555C12.726 10.8737 12.8199 11.014 12.8839 11.1685C12.948 11.323 12.9809 11.4887 12.9809 11.6559C12.9809 11.8232 12.948 11.9888 12.8839 12.1433C12.8199 12.2978 12.726 12.4382 12.6077 12.5564C12.4895 12.6747 12.3491 12.7686 12.1946 12.8326C12.0401 12.8967 11.8745 12.9296 11.7072 12.9296C11.54 12.9296 11.3743 12.8967 11.2198 12.8326C11.0653 12.7686 10.925 12.6747 10.8068 12.5564L10.7686 12.5182C10.6186 12.3715 10.4281 12.2731 10.2217 12.2356C10.0152 12.1982 9.80233 12.2235 9.61039 12.3082C9.42217 12.3888 9.26165 12.5228 9.14859 12.6935C9.03552 12.8643 8.97484 13.0643 8.97403 13.2691V13.3773C8.97403 13.7148 8.83994 14.0385 8.60125 14.2772C8.36257 14.5159 8.03885 14.65 7.7013 14.65C7.36375 14.65 7.04003 14.5159 6.80135 14.2772C6.56266 14.0385 6.42857 13.7148 6.42857 13.3773V13.32C6.42365 13.1094 6.35547 12.9051 6.2329 12.7337C6.11033 12.5624 5.93904 12.4318 5.7413 12.3591C5.54936 12.2744 5.33645 12.2491 5.13002 12.2865C4.92358 12.324 4.7331 12.4224 4.58312 12.5691L4.54494 12.6073C4.42673 12.7256 4.28637 12.8195 4.13186 12.8835C3.97735 12.9476 3.81174 12.9805 3.64448 12.9805C3.47723 12.9805 3.31161 12.9476 3.1571 12.8835C3.0026 12.8195 2.86223 12.7256 2.74403 12.6073C2.62569 12.4891 2.53182 12.3487 2.46777 12.1942C2.40372 12.0397 2.37075 11.8741 2.37075 11.7068C2.37075 11.5396 2.40372 11.3739 2.46777 11.2194C2.53182 11.0649 2.62569 10.9246 2.74403 10.8064L2.78221 10.7682C2.92891 10.6182 3.02733 10.4277 3.06476 10.2213C3.10219 10.0149 3.07692 9.80194 2.99221 9.61C2.91154 9.42178 2.7776 9.26126 2.60687 9.1482C2.43614 9.03513 2.23607 8.97445 2.0313 8.97364H1.92312C1.58557 8.97364 1.26185 8.83955 1.02316 8.60086C0.784481 8.36218 0.650391 8.03846 0.650391 7.70091C0.650391 7.36336 0.784481 7.03964 1.02316 6.80096C1.26185 6.56227 1.58557 6.42818 1.92312 6.42818H1.98039C2.19102 6.42326 2.3953 6.35508 2.56667 6.23251C2.73804 6.10994 2.86857 5.93865 2.9413 5.74091C3.02601 5.54897 3.05128 5.33606 3.01385 5.12963C2.97642 4.92319 2.878 4.73271 2.7313 4.58273L2.69312 4.54455C2.57478 4.42634 2.48091 4.28598 2.41686 4.13147C2.35281 3.97696 2.31984 3.81135 2.31984 3.64409C2.31984 3.47684 2.35281 3.31122 2.41686 3.15671C2.48091 3.00221 2.57478 2.86184 2.69312 2.74364C2.81132 2.6253 2.95169 2.53143 3.10619 2.46738C3.2607 2.40333 3.42632 2.37036 3.59357 2.37036C3.76083 2.37036 3.92644 2.40333 4.08095 2.46738C4.23546 2.53143 4.37582 2.6253 4.49403 2.74364L4.53221 2.78182C4.68219 2.92852 4.87267 3.02694 5.07911 3.06437C5.28554 3.1018 5.49845 3.07653 5.69039 2.99182H5.7413C5.92952 2.91115 6.09004 2.77721 6.2031 2.60648C6.31617 2.43575 6.37685 2.23568 6.37766 2.03091V1.92273C6.37766 1.58518 6.51175 1.26146 6.75044 1.02277C6.98912 0.784092 7.31284 0.650002 7.65039 0.650002C7.98794 0.650002 8.31166 0.784092 8.55034 1.02277C8.78903 1.26146 8.92312 1.58518 8.92312 1.92273V1.98C8.92393 2.18477 8.98461 2.38484 9.09768 2.55557C9.21074 2.7263 9.37126 2.86024 9.55948 2.94091C9.75142 3.02562 9.96433 3.05089 10.1708 3.01346C10.3772 2.97603 10.5677 2.87762 10.7177 2.73091L10.7558 2.69273C10.874 2.5744 11.0144 2.48052 11.1689 2.41647C11.3234 2.35242 11.489 2.31945 11.6563 2.31945C11.8236 2.31945 11.9892 2.35242 12.1437 2.41647C12.2982 2.48052 12.4386 2.5744 12.5568 2.69273C12.6751 2.81093 12.769 2.9513 12.833 3.1058C12.8971 3.26031 12.93 3.42593 12.93 3.59318C12.93 3.76044 12.8971 3.92606 12.833 4.08056C12.769 4.23507 12.6751 4.37544 12.5568 4.49364L12.5186 4.53182C12.3719 4.6818 12.2735 4.87228 12.236 5.07872C12.1986 5.28515 12.2239 5.49806 12.3086 5.69V5.74091C12.3892 5.92913 12.5232 6.08965 12.6939 6.20271C12.8646 6.31578 13.0647 6.37646 13.2695 6.37727H13.3777C13.7152 6.37727 14.0389 6.51136 14.2776 6.75005C14.5163 6.98873 14.6504 7.31245 14.6504 7.65C14.6504 7.98755 14.5163 8.31127 14.2776 8.54996C14.0389 8.78864 13.7152 8.92273 13.3777 8.92273H13.3204C13.1156 8.92355 12.9156 8.98422 12.7448 9.09729C12.5741 9.21035 12.4401 9.37088 12.3595 9.55909Z" stroke="#6B6B6B" stroke-width="1.3" stroke-linecap="round" stroke-linejoin="round"/>
</svg>