<svg xmlns="http://www.w3.org/2000/svg" width="18" height="19" viewBox="0 0 18 19" fill="none">
<path d="M3.92255 4.84464C0.988045 4.16219 0.825018 7.4851 1.11032 9.23186C-0.0634308 7.47698 0.213641 5.57585 0.498896 4.84464C1.6727 1.62736 6.28638 2.93539 8.4465 3.99157C8.64213 2.27501 10.2398 1.08273 11.0142 0.701165C15.1225 -1.05372 16.8832 2.73228 17.25 4.84464C16.8424 4.27593 15.3915 2.96789 12.8483 2.28544C10.305 1.60298 9.34334 4.39779 9.05804 6.06331C8.65049 5.81958 6.85705 5.5271 3.92255 4.84464Z" fill="#00AA5D"/>
<path d="M7.27813 10.7618C5.37858 10.3173 5.27305 12.4815 5.45773 13.6191C4.69794 12.4762 4.87729 11.238 5.06194 10.7618C5.82176 8.66647 8.80828 9.51836 10.2066 10.2062C10.3332 9.08827 11.3674 8.31177 11.8687 8.06327C14.528 6.92036 15.6678 9.38608 15.9052 10.7618C15.6414 10.3914 14.7022 9.53953 13.0559 9.09506C11.4096 8.6506 10.7871 10.4708 10.6024 11.5555C10.3386 11.3967 9.17768 11.2063 7.27813 10.7618Z" fill="#00AA5D"/>
<path d="M9.68434 15.988C8.20691 15.6361 8.12483 17.3494 8.26847 18.25C7.67753 17.3452 7.81702 16.365 7.96064 15.988C8.55161 14.3292 10.8745 15.0036 11.962 15.5482C12.0605 14.6631 12.8649 14.0484 13.2548 13.8517C15.3232 12.9469 16.2096 14.8989 16.3943 15.988C16.1891 15.6948 15.4586 15.0204 14.1781 14.6685C12.8977 14.3166 12.4135 15.7576 12.2699 16.6163C12.0647 16.4907 11.1618 16.3399 9.68434 15.988Z" fill="#00AA5D"/>
<path d="M3.92255 4.84464C0.988045 4.16219 0.825018 7.4851 1.11032 9.23186C-0.0634308 7.47698 0.213641 5.57585 0.498896 4.84464C1.6727 1.62736 6.28638 2.93539 8.4465 3.99157C8.64213 2.27501 10.2398 1.08273 11.0142 0.701165C15.1225 -1.05372 16.8832 2.73228 17.25 4.84464C16.8424 4.27593 15.3915 2.96789 12.8483 2.28544C10.305 1.60298 9.34334 4.39779 9.05804 6.06331C8.65049 5.81958 6.85705 5.5271 3.92255 4.84464Z" stroke="#00AA5D" stroke-width="0.5"/>
<path d="M7.27813 10.7618C5.37858 10.3173 5.27305 12.4815 5.45773 13.6191C4.69794 12.4762 4.87729 11.238 5.06194 10.7618C5.82176 8.66647 8.80828 9.51836 10.2066 10.2062C10.3332 9.08827 11.3674 8.31177 11.8687 8.06327C14.528 6.92036 15.6678 9.38608 15.9052 10.7618C15.6414 10.3914 14.7022 9.53953 13.0559 9.09506C11.4096 8.6506 10.7871 10.4708 10.6024 11.5555C10.3386 11.3967 9.17768 11.2063 7.27813 10.7618Z" stroke="#00AA5D" stroke-width="0.5"/>
<path d="M9.68434 15.988C8.20691 15.6361 8.12483 17.3494 8.26847 18.25C7.67753 17.3452 7.81702 16.365 7.96064 15.988C8.55161 14.3292 10.8745 15.0036 11.962 15.5482C12.0605 14.6631 12.8649 14.0484 13.2548 13.8517C15.3232 12.9469 16.2096 14.8989 16.3943 15.988C16.1891 15.6948 15.4586 15.0204 14.1781 14.6685C12.8977 14.3166 12.4135 15.7576 12.2699 16.6163C12.0647 16.4907 11.1618 16.3399 9.68434 15.988Z" stroke="#00AA5D" stroke-width="0.5"/>
</svg>