<svg xmlns="http://www.w3.org/2000/svg" width="16" height="16" viewBox="0 0 16 16" fill="none">
<path d="M7.3806 1.48291H2.22347C1.83268 1.48291 1.4579 1.63816 1.18157 1.91451C0.90524 2.19085 0.75 2.56566 0.75 2.95647V13.2714C0.75 13.6622 0.90524 14.037 1.18157 14.3133C1.4579 14.5897 1.83268 14.7449 2.22347 14.7449H12.5377C12.9285 14.7449 13.3033 14.5897 13.5796 14.3133C13.856 14.037 14.0112 13.6622 14.0112 13.2714V8.11393" stroke="#E3494E" stroke-width="1.5" stroke-linecap="round" stroke-linejoin="round"/>
<path d="M12.0762 1.20778C12.3693 0.914667 12.7669 0.75 13.1813 0.75C13.5958 0.75 13.9934 0.914667 14.2864 1.20778C14.5795 1.50089 14.7442 1.89843 14.7442 2.31295C14.7442 2.72746 14.5795 3.12501 14.2864 3.41811L7.64627 10.0594C7.47133 10.2342 7.25521 10.3622 7.01783 10.4315L4.9012 11.0504C4.8378 11.0689 4.7706 11.07 4.70663 11.0536C4.64266 11.0372 4.58427 11.0039 4.53758 10.9572C4.49088 10.9106 4.4576 10.8522 4.44121 10.7882C4.42482 10.7242 4.42593 10.657 4.44442 10.5936L5.06328 8.47684C5.13292 8.23964 5.26112 8.02377 5.43607 7.84911L12.0762 1.20778Z" stroke="#E3494E" stroke-width="1.5" stroke-linecap="round" stroke-linejoin="round"/>
</svg>