<svg xmlns="http://www.w3.org/2000/svg" width="24" height="22" viewBox="0 0 24 22" fill="none">
<path d="M22.6752 17.4192L13.7932 1.87568C13.5995 1.53395 13.3187 1.24971 12.9793 1.05195C12.6399 0.854193 12.2542 0.75 11.8614 0.75C11.4686 0.75 11.0828 0.854193 10.7434 1.05195C10.4041 1.24971 10.1232 1.53395 9.92953 1.87568L1.04754 17.4192C0.851786 17.7582 0.749139 18.1429 0.750005 18.5344C0.750872 18.9259 0.855222 19.3102 1.05248 19.6483C1.24973 19.9865 1.53289 20.2665 1.87323 20.4599C2.21357 20.6534 2.59901 20.7534 2.99048 20.7499H20.7545C21.144 20.7495 21.5267 20.6466 21.8639 20.4516C22.2012 20.2565 22.4811 19.9762 22.6758 19.6387C22.8704 19.3012 22.9728 18.9184 22.9727 18.5288C22.9726 18.1393 22.87 17.7566 22.6752 17.4192Z" stroke="#717182" stroke-width="1.5" stroke-linecap="round" stroke-linejoin="round"/>
<path d="M11.875 7.42657V11.8676" stroke="#717182" stroke-width="1.5" stroke-linecap="round" stroke-linejoin="round"/>
<path d="M11.875 16.3091H11.8861" stroke="#717182" stroke-width="1.5" stroke-linecap="round" stroke-linejoin="round"/>
</svg>