<svg xmlns="http://www.w3.org/2000/svg" viewBox="0 0 361 264" fill="none">
  <path d="M0 10C0 4.47715 4.47715 0 10 0H351C356.523 0 361 4.47715 361 10V222.675C361 228.198 356.523 232.675 351 232.675H48.769C46.2682 232.675 43.8582 233.612 42.0142 235.301L12.6838 262.169C7.51551 266.175 0 262.491 0 255.952V212.193V10Z" fill="white"/>
  <path d="M10 0.5H351C356.247 0.5 360.5 4.75329 360.5 10V222.675C360.5 227.921 356.247 232.175 351 232.175H48.7686C46.1429 232.175 43.6129 233.159 41.6768 234.933L12.3584 261.787C7.51926 265.515 0.5 262.068 0.5 255.952V10C0.5 4.75329 4.7533 0.5 10 0.5Z" stroke="black" stroke-opacity="0.15"/>
</svg>