<svg xmlns="http://www.w3.org/2000/svg" width="53" height="55" viewBox="0 0 53 55" fill="none">
<ellipse cx="30.9004" cy="33.1894" rx="21.2012" ry="21.2013" fill="#C1C3F8"/>
<path d="M49.2485 37.9359V45.3124C49.2512 45.9972 49.1136 46.675 48.8443 47.3024C48.575 47.9299 48.1801 48.4931 47.6848 48.956C47.1895 49.419 46.6048 49.7714 45.9681 49.9908C45.3313 50.2102 44.6567 50.2917 43.9872 50.23C36.5607 49.4079 29.427 46.8225 23.1594 42.6814C17.3281 38.9063 12.3842 33.8694 8.67881 27.9285C4.60007 21.5139 2.06178 14.2107 1.26959 6.61048C1.20928 5.93053 1.28859 5.24524 1.50249 4.59824C1.71638 3.95123 2.06016 3.35669 2.51194 2.85246C2.96372 2.34823 3.5136 1.94537 4.12658 1.66952C4.73956 1.39367 5.4022 1.25088 6.07231 1.25024H13.3126C14.4838 1.23849 15.6193 1.66106 16.5074 2.43916C17.3955 3.21727 17.9755 4.29782 18.1394 5.47942C18.445 7.84005 19.0118 10.1579 19.8288 12.3887C20.1536 13.2688 20.2238 14.2252 20.0313 15.1448C19.8389 16.0643 19.3917 16.9083 18.7428 17.5768L15.6777 20.6995C19.1134 26.8553 24.1162 31.9522 30.1583 35.4525L33.2234 32.3298C33.8795 31.6687 34.708 31.2131 35.6105 31.017C36.5131 30.8209 37.4519 30.8925 38.3157 31.2233C40.5053 32.0558 42.7804 32.6332 45.0974 32.9445C46.2698 33.113 47.3405 33.7146 48.1058 34.6349C48.8712 35.5552 49.2779 36.73 49.2485 37.9359Z" stroke="#150776" stroke-width="2.5" stroke-linecap="round" stroke-linejoin="round"/>
</svg>