<svg xmlns="http://www.w3.org/2000/svg" width="50" height="55" viewBox="0 0 50 55" fill="none">
<ellipse cx="28.459" cy="33.7587" rx="21.2012" ry="21.2013" fill="#C1C3F8"/>
<path d="M40.6304 28.3254C40.6304 40.6318 32.016 46.7851 21.7771 50.354C21.2409 50.5356 20.6585 50.527 20.128 50.3293C9.86447 46.7851 1.25 40.6318 1.25 28.3254V11.0963C1.25 10.4435 1.50931 9.81747 1.97089 9.35589C2.43247 8.89431 3.05851 8.63499 3.71128 8.63499C8.63383 8.63499 14.787 5.68144 19.0697 1.94027C19.5911 1.49477 20.2544 1.25 20.9402 1.25C21.6261 1.25 22.2894 1.49477 22.8108 1.94027C27.118 5.70605 33.2466 8.63499 38.1692 8.63499C38.8219 8.63499 39.448 8.89431 39.9096 9.35589C40.3711 9.81747 40.6304 10.4435 40.6304 11.0963V28.3254Z" stroke="#150776" stroke-width="2.5" stroke-linecap="round" stroke-linejoin="round"/>
</svg>