<svg xmlns="http://www.w3.org/2000/svg" width="52" height="52" viewBox="0 0 52 52" fill="none">
<ellipse cx="32.8644" cy="32.4694" rx="18.7804" ry="18.7806" fill="#FFB602"/>
<path d="M24.0995 49.4116C25.8408 49.5498 27.0471 49.0998 27.5426 48.7459C31.7161 46.1374 40.7515 40.545 43.506 39.0426C45.2275 38.1035 46.5317 35.2865 46.3231 34.3474C46.4274 29.9653 46.3231 20.4602 46.3231 17.4449C46.3231 14.6279 46.0551 14.5118 45.633 13.3758M24.0995 49.4116C23.2744 49.346 22.3291 49.1484 21.2825 48.7459C18.0272 47.4938 7.61448 41.1293 2.81504 38.1035C1.25 37.1169 1.25 36.1003 1.25 34.3474V18.384C1.25 15.5669 1.69915 14.7462 2.59269 13.3758M24.0995 49.4116V27.1482M24.0995 27.1482L2.59269 13.3758M24.0995 27.1482L34.8662 20.262M45.633 13.3758C45.2416 12.3227 43.3539 10.5351 42.254 9.93276C37.8719 7.53303 30.9043 3.94477 28.4816 2.73347C24.0995 0.542429 21.2825 0.980685 18.4654 2.73349C13.7703 5.65491 7.19714 9.66442 3.75406 12.1238C3.29421 12.4522 2.81504 13.0348 2.59269 13.3758M45.633 13.3758L34.8662 20.262M34.8662 20.262L14.7093 6.17658M34.8662 20.262V28.7133" stroke="#4E2B2C" stroke-width="2.5"/>
</svg>