<svg xmlns="http://www.w3.org/2000/svg" width="47" height="52" viewBox="0 0 47 52" fill="none">
<circle cx="26.5786" cy="31.5132" r="19.7368" fill="#FFB602"/>
<path d="M37.9105 26.4551C37.9105 37.9116 29.891 43.6398 20.3593 46.9621C19.8602 47.1313 19.318 47.1232 18.8241 46.9392C9.26949 43.6398 1.25 37.9116 1.25 26.4551V10.4162C1.25 9.80848 1.4914 9.22568 1.9211 8.79598C2.3508 8.36628 2.9336 8.12488 3.54128 8.12488C8.12385 8.12488 13.8521 5.37534 17.8389 1.89259C18.3243 1.47786 18.9418 1.25 19.5803 1.25C20.2187 1.25 20.8362 1.47786 21.3216 1.89259C25.3314 5.39825 31.0367 8.12488 35.6192 8.12488C36.2269 8.12488 36.8097 8.36628 37.2394 8.79598C37.6691 9.22568 37.9105 9.80848 37.9105 10.4162V26.4551Z" stroke="#4E2B2C" stroke-width="2.5" stroke-linecap="round" stroke-linejoin="round"/>
<path d="M12.707 24.1638L17.2896 28.7464L26.4547 19.5813" stroke="#4E2B2C" stroke-width="2.5" stroke-linecap="round" stroke-linejoin="round"/>
</svg>